<svg width="101" height="79" viewBox="0 0 101 79" fill="none" xmlns="http://www.w3.org/2000/svg">
<path d="M59.6034 53.6079C65.7085 51.0458 70.528 47.5584 74.0597 43.1442C77.591 38.731 79.3568 33.9249 79.3568 28.7259C79.3568 23.5267 77.5909 18.7202 74.0583 14.3068C70.527 9.89345 65.7083 6.40561 59.6024 3.84293C53.4965 1.28065 46.8554 0 39.6782 0C32.5016 0 25.8605 1.28144 19.7542 3.84293C13.6485 6.40541 8.82955 9.89325 5.29808 14.3068C1.76623 18.721 0 23.5267 0 28.7261C0 33.1766 1.33587 37.3676 4.00347 41.2948C6.67087 45.2213 10.3346 48.5321 14.9935 51.2246C14.618 52.1231 14.2329 52.9449 13.8382 53.694C13.4434 54.4419 12.9742 55.1613 12.4289 55.8538C11.8841 56.5465 11.4618 57.0885 11.161 57.4799C10.8603 57.8725 10.3719 58.4255 9.69519 59.1349C9.01867 59.8457 8.58634 60.3132 8.3988 60.537C8.3988 60.4995 8.32359 60.5842 8.17316 60.7899C8.02254 60.9957 7.93805 61.0886 7.91949 61.0711C7.90054 61.0509 7.82533 61.1444 7.69385 61.3502C7.56238 61.5561 7.49644 61.6589 7.49644 61.6589L7.35529 61.9385C7.29962 62.0515 7.26133 62.1619 7.24277 62.2749C7.22382 62.3863 7.21434 62.5088 7.21434 62.6393C7.21434 62.7697 7.2329 62.8908 7.2712 63.0036C7.34641 63.4892 7.56238 63.8812 7.91929 64.1818C8.27601 64.4805 8.66076 64.6297 9.07453 64.6297H9.24372C11.1221 64.3679 12.7381 64.0689 14.0905 63.7318C19.877 62.2364 25.1003 59.8416 29.7593 56.5504C33.1408 57.149 36.4474 57.4481 39.6786 57.4481C46.8558 57.4506 53.4977 56.1704 59.6034 53.6079Z" fill="#272727"/>
<path d="M62.2804 35.4874C64.949 31.579 66.2823 27.382 66.2823 22.8931C66.2823 18.2921 64.8716 13.9881 62.0546 9.9864C59.2362 5.98508 55.4031 2.65562 50.5565 0C51.4199 2.80497 51.8521 5.64748 51.8521 8.52811C51.8521 13.5397 50.595 18.2899 48.0758 22.7787C45.5584 27.2662 41.9512 31.2306 37.2546 34.6723C32.8958 37.8141 27.9359 40.2258 22.3744 41.9095C16.8146 43.592 11.009 44.4343 4.95933 44.4343C3.83252 44.4343 2.17901 44.3602 0 44.2108C7.55211 49.1469 16.42 51.6163 26.6022 51.6163C29.834 51.6163 33.1402 51.3164 36.5222 50.718C41.1811 54.0105 46.4045 56.4032 52.1906 57.9002C53.5433 58.2379 55.1591 58.5363 57.0378 58.7979C57.4885 58.8354 57.9027 58.7044 58.2781 58.4051C58.6538 58.106 58.8984 57.6957 59.0105 57.1726C58.993 56.948 59.0105 56.8248 59.0672 56.8069C59.1227 56.7892 59.1132 56.667 59.0388 56.4429C58.9645 56.2181 58.9266 56.1059 58.9266 56.1059L58.7861 55.8261C58.747 55.7522 58.6834 55.6486 58.5889 55.5182C58.4949 55.3885 58.4201 55.2935 58.3632 55.2377C58.308 55.1819 58.2241 55.0878 58.1105 54.9579C57.9984 54.8282 57.9228 54.7433 57.8849 54.7058C57.6972 54.4812 57.2652 54.0139 56.5891 53.3029C55.9122 52.5929 55.4246 52.0413 55.1239 51.6487C54.8233 51.2559 54.4004 50.7139 53.8558 50.0212C53.3113 49.3299 52.8411 48.6097 52.4465 47.8614C52.052 47.1135 51.6669 46.2903 51.2912 45.3932C55.9505 42.6979 59.6132 39.3971 62.2804 35.4874Z" transform="translate(34.7177 20.1958)" fill="#272727"/>
</svg>
