<svg width="35" height="35" viewBox="0 0 35 35" fill="none" xmlns="http://www.w3.org/2000/svg">
<path d="M17.4993 0C7.83556 0 0 7.83556 0 17.4993C0 27.163 7.83556 35 17.4993 35C27.163 35 35 27.163 35 17.4993C35 7.83556 27.163 0 17.4993 0ZM21.1422 27.1215C20.2415 27.477 19.5244 27.7467 18.9867 27.9333C18.4504 28.12 17.8267 28.2133 17.117 28.2133C16.0267 28.2133 15.1778 27.9467 14.5733 27.4148C13.9689 26.883 13.6681 26.2089 13.6681 25.3896C13.6681 25.0711 13.6904 24.7452 13.7348 24.4133C13.7807 24.0815 13.8533 23.7081 13.9526 23.2889L15.08 19.3067C15.1793 18.9244 15.2652 18.5615 15.3333 18.2237C15.4015 17.883 15.4341 17.5704 15.4341 17.2859C15.4341 16.7793 15.3289 16.4237 15.12 16.2237C14.9081 16.0237 14.5096 15.9259 13.9156 15.9259C13.6252 15.9259 13.3259 15.9689 13.0193 16.0593C12.7156 16.1526 12.4519 16.237 12.2356 16.32L12.5333 15.0933C13.2711 14.7926 13.9778 14.5348 14.6519 14.3215C15.3259 14.1052 15.963 13.9985 16.563 13.9985C17.6459 13.9985 18.4815 14.2622 19.0696 14.7837C19.6548 15.3067 19.9496 15.9867 19.9496 16.8222C19.9496 16.9956 19.9289 17.3007 19.8889 17.7363C19.8489 18.1733 19.7733 18.5719 19.6637 18.9378L18.5422 22.9081C18.4504 23.2267 18.3689 23.5911 18.2948 23.9985C18.2222 24.4059 18.1867 24.717 18.1867 24.9259C18.1867 25.4533 18.3037 25.8133 18.5407 26.0044C18.7748 26.1956 19.1852 26.2919 19.7659 26.2919C20.04 26.2919 20.3467 26.243 20.6933 26.1481C21.037 26.0533 21.2859 25.9689 21.443 25.8963L21.1422 27.1215ZM20.9437 11.0059C20.4207 11.4919 19.7911 11.7348 19.0548 11.7348C18.32 11.7348 17.6859 11.4919 17.1585 11.0059C16.6341 10.52 16.3689 9.92889 16.3689 9.23852C16.3689 8.54963 16.6356 7.95704 17.1585 7.46667C17.6859 6.97481 18.32 6.73037 19.0548 6.73037C19.7911 6.73037 20.4222 6.97481 20.9437 7.46667C21.4667 7.95704 21.7289 8.54963 21.7289 9.23852C21.7289 9.93037 21.4667 10.52 20.9437 11.0059Z" fill="white"/>
</svg>
