<?xml version="1.0" encoding="UTF-8" standalone="no"?>
<!-- Generator: Adobe Illustrator 18.0.0, SVG Export Plug-In . SVG Version: 6.00 Build 0)  -->

<svg
   xmlns:dc="http://purl.org/dc/elements/1.1/"
   xmlns:cc="http://creativecommons.org/ns#"
   xmlns:rdf="http://www.w3.org/1999/02/22-rdf-syntax-ns#"
   xmlns:svg="http://www.w3.org/2000/svg"
   xmlns="http://www.w3.org/2000/svg"
   xmlns:sodipodi="http://sodipodi.sourceforge.net/DTD/sodipodi-0.dtd"
   xmlns:inkscape="http://www.inkscape.org/namespaces/inkscape"
   version="1.1"
   id="Layer_1"
   x="0px"
   y="0px"
   viewBox="0 0 841.9 595.3"
   enable-background="new 0 0 841.9 595.3"
   xml:space="preserve"
   sodipodi:docname="bike-grande.svg"
   inkscape:version="0.92.3 (2405546, 2018-03-11)"><metadata
   id="metadata199"><rdf:RDF><cc:Work
       rdf:about=""><dc:format>image/svg+xml</dc:format><dc:type
         rdf:resource="http://purl.org/dc/dcmitype/StillImage" /><dc:title></dc:title></cc:Work></rdf:RDF></metadata><defs
   id="defs197" /><sodipodi:namedview
   pagecolor="#ffffff"
   bordercolor="#666666"
   borderopacity="1"
   objecttolerance="10"
   gridtolerance="10"
   guidetolerance="10"
   inkscape:pageopacity="0"
   inkscape:pageshadow="2"
   inkscape:window-width="1600"
   inkscape:window-height="837"
   id="namedview195"
   showgrid="false"
   inkscape:zoom="0.96419831"
   inkscape:cx="279.47996"
   inkscape:cy="318.94135"
   inkscape:window-x="-8"
   inkscape:window-y="-8"
   inkscape:window-maximized="1"
   inkscape:current-layer="Layer_1" />
























































<g
   id="g1129"><polygon
     style="fill:#ebc9ac"
     transform="matrix(-1,0,0,1,836.08329,0)"
     id="polygon2"
     points="385.2,449.2 380.4,460.3 364.1,457.2 368.3,445.1 " /><path
     style="fill:#024683;fill-opacity:1"
     inkscape:connector-curvature="0"
     id="path4"
     d="m 481.08329,279.9 c 0,0 -42.7,83.3 -45.6,88.5 -2.9,5.2 37.3,81.4 37.3,81.4 l -24.9,5.6 c 0,0 -34.5,-79.9 -35,-85 -0.5,-5 25.5,-85.7 25.5,-85.7 z" /><polygon
     style="fill:#9a958d"
     transform="matrix(-1,0,0,1,836.08329,0)"
     id="polygon6"
     points="383.4,457.6 381.2,464.5 365.8,468.8 359.1,462.6 363.9,453.4 " /><g
     transform="matrix(-1,0,0,1,836.08329,0)"
     id="g12">
	<path
   style="fill:#533118"
   inkscape:connector-curvature="0"
   id="path8"
   d="m 357.4,478.9 h 59.5 c 0,0 -0.3,-8 -3.4,-10.1 -3.1,-2.1 -25.6,-7.6 -28.7,-8.1 -3.1,-0.5 -8.9,4.6 -15.4,4.6 -6.5,0 -7.8,-4.8 -9.6,-6.4 -1.8,-1.7 -5.4,14.2 -2.4,20 z" />
	<rect
   style="fill:#a57f60"
   id="rect10"
   height="2.4000001"
   width="59.5"
   y="478.89999"
   x="357.39999" />
</g><path
     style="fill:#d0dfdf"
     inkscape:connector-curvature="0"
     id="path14"
     d="m 541.58329,341.7 c 46.4,0 84,37.6 84,84 0,46.4 -37.6,84 -84,84 -46.4,0 -84,-37.6 -84,-84 0,-46.4 37.6,-84 84,-84 z m 0,150.6 c 36.7,0 66.5,-29.8 66.5,-66.5 0,-36.7 -29.8,-66.5 -66.5,-66.5 -36.7,0 -66.5,29.7 -66.5,66.4 0,36.7 29.8,66.6 66.5,66.6 z" /><path
     style="fill:#222222;fill-opacity:1"
     inkscape:connector-curvature="0"
     id="path16"
     d="m 541.58329,339.5 c 47.6,0 86.2,38.6 86.2,86.2 0,47.6 -38.6,86.2 -86.2,86.2 -47.6,0 -86.2,-38.6 -86.2,-86.2 0,-47.6 38.6,-86.2 86.2,-86.2 z m 0,157.9 c 39.6,0 71.7,-32.1 71.7,-71.7 0,-39.6 -32.1,-71.7 -71.7,-71.7 -39.6,0 -71.7,32.1 -71.7,71.7 0.1,39.6 32.2,71.7 71.7,71.7 z" /><g
     style="fill:#b8002e;fill-opacity:1"
     transform="matrix(-1,0,0,1,836.08329,0)"
     id="g20">
	<path
   style="fill:#b8002e;fill-opacity:1"
   inkscape:connector-curvature="0"
   id="path18"
   d="m 503.2,311.2 c -1.3,0 -2.6,-0.8 -3.1,-2.1 -1.5,-3.9 -5,-16 -6.8,-22.4 -0.9,-3.2 -1,-7.8 1.6,-11.1 1.3,-1.8 3.9,-3.9 8.6,-3.9 h 16.3 c 1.8,0 3.3,1.5 3.3,3.3 0,1.8 -1.5,3.3 -3.3,3.3 h -16.3 c -2.4,0 -3.1,0.9 -3.3,1.3 -0.9,1.1 -1.1,3.3 -0.5,5.3 1.7,5.9 5.2,18.2 6.6,21.9 0.7,1.7 -0.2,3.6 -1.9,4.3 -0.4,0 -0.8,0.1 -1.2,0.1 z" />
</g><path
     style="fill:#2f2f2f"
     inkscape:connector-curvature="0"
     id="path22"
     d="m 287.98329,408 c 9.6,0 17.4,8 17.4,17.8 0,9.8 -7.8,17.8 -17.4,17.8 -9.6,0 -17.4,-8 -17.4,-17.8 -0.1,-9.9 7.7,-17.8 17.4,-17.8 z" /><g
     style="opacity:0.4"
     transform="matrix(-1,0,0,1,836.08329,0)"
     id="g30">
	<g
   id="g28">
		<g
   id="g26">
			<path
   style="fill:#d0dfdf"
   inkscape:connector-curvature="0"
   id="path24"
   d="m 545.5,439.1 c -0.1,0 -0.2,0 -0.3,0 -0.3,-0.1 -0.5,-0.1 -0.8,-0.2 -0.8,-0.2 -1.2,-1.1 -1,-1.9 0.2,-0.8 1.1,-1.3 1.9,-1 0.2,0.1 0.4,0.1 0.6,0.2 0.8,0.2 1.3,1 1.1,1.8 -0.2,0.6 -0.8,1.1 -1.5,1.1 z m 6,-0.2 c -0.6,0 -1.2,-0.4 -1.4,-1.1 -0.2,-0.8 0.2,-1.7 1,-1.9 0.2,-0.1 0.4,-0.1 0.6,-0.2 0.8,-0.3 1.6,0.1 1.9,0.9 0.3,0.8 -0.1,1.7 -0.9,2 -0.3,0.1 -0.5,0.2 -0.8,0.3 -0.1,0 -0.3,0 -0.4,0 z m -11.9,-3.1 c -0.4,0 -0.8,-0.2 -1.1,-0.5 -0.2,-0.2 -0.4,-0.4 -0.6,-0.6 -0.5,-0.6 -0.5,-1.6 0.2,-2.2 0.6,-0.6 1.6,-0.5 2.1,0.2 0.1,0.2 0.3,0.3 0.5,0.5 0.6,0.6 0.6,1.6 0,2.2 -0.3,0.2 -0.7,0.4 -1.1,0.4 z m 17.5,-0.5 c -0.3,0 -0.7,-0.1 -1,-0.4 -0.6,-0.6 -0.7,-1.5 -0.1,-2.2 0.1,-0.2 0.3,-0.3 0.4,-0.5 0.5,-0.7 1.4,-0.8 2.1,-0.3 0.7,0.5 0.8,1.5 0.3,2.1 -0.2,0.2 -0.4,0.5 -0.5,0.7 -0.3,0.4 -0.7,0.6 -1.2,0.6 z m -20.6,-5.6 c -0.7,0 -1.3,-0.5 -1.5,-1.2 -0.1,-0.3 -0.1,-0.6 -0.1,-0.9 -0.1,-0.8 0.5,-1.6 1.3,-1.7 0.8,-0.1 1.6,0.5 1.7,1.3 0,0.2 0.1,0.4 0.1,0.7 0.2,0.8 -0.4,1.6 -1.2,1.8 -0.1,0 -0.2,0 -0.3,0 z M 560,429 c -0.1,0 -0.1,0 -0.2,0 -0.8,-0.1 -1.4,-0.9 -1.3,-1.7 0,-0.2 0.1,-0.4 0.1,-0.7 0.1,-0.8 0.8,-1.5 1.6,-1.4 0.8,0.1 1.4,0.8 1.4,1.6 0,0.3 -0.1,0.6 -0.1,0.9 -0.2,0.8 -0.8,1.3 -1.5,1.3 z m -23,-6.1 c -0.2,0 -0.4,0 -0.5,-0.1 -0.8,-0.3 -1.2,-1.2 -0.9,-2 0.1,-0.3 0.2,-0.5 0.3,-0.8 0.3,-0.8 1.2,-1.1 2,-0.8 0.8,0.4 1.1,1.3 0.7,2 -0.1,0.2 -0.2,0.4 -0.3,0.6 -0.1,0.7 -0.7,1.1 -1.3,1.1 z m 22,-0.6 c -0.6,0 -1.1,-0.3 -1.4,-0.9 -0.1,-0.2 -0.2,-0.4 -0.3,-0.6 -0.4,-0.7 -0.1,-1.7 0.6,-2.1 0.7,-0.4 1.6,-0.1 2,0.6 0.1,0.3 0.3,0.5 0.4,0.8 0.3,0.8 0,1.7 -0.7,2 -0.2,0.1 -0.4,0.2 -0.6,0.2 z m -17.9,-4.8 c -0.5,0 -0.9,-0.2 -1.2,-0.6 -0.5,-0.7 -0.4,-1.6 0.3,-2.1 0.2,-0.2 0.5,-0.3 0.7,-0.5 0.7,-0.5 1.6,-0.3 2.1,0.5 0.4,0.7 0.2,1.7 -0.5,2.1 -0.2,0.1 -0.4,0.2 -0.5,0.4 -0.3,0.1 -0.6,0.2 -0.9,0.2 z m 13.5,-0.4 c -0.3,0 -0.6,-0.1 -0.8,-0.2 -0.2,-0.1 -0.4,-0.2 -0.6,-0.3 -0.7,-0.4 -1,-1.3 -0.6,-2.1 0.4,-0.7 1.3,-1 2,-0.6 0.3,0.1 0.5,0.3 0.7,0.5 0.7,0.5 0.9,1.4 0.4,2.1 -0.1,0.3 -0.6,0.6 -1.1,0.6 z m -7.2,-2 c -0.8,0 -1.4,-0.6 -1.5,-1.4 -0.1,-0.8 0.6,-1.6 1.4,-1.6 0.3,0 0.6,0 0.9,0 0.8,0 1.5,0.7 1.5,1.5 0,0.8 -0.6,1.5 -1.5,1.5 0,0 -0.1,0 -0.1,0 -0.2,0 -0.4,0 -0.7,0 0.1,0 0,0 0,0 z" />
		</g>
	</g>
</g><path
     style="fill:#d0dfdf"
     inkscape:connector-curvature="0"
     id="path32"
     d="m 287.98329,341.7 c 46.4,0 84,37.6 84,84 0,46.4 -37.6,84 -84,84 -46.4,0 -84,-37.6 -84,-84 -0.1,-46.4 37.5,-84 84,-84 z m 0,150.6 c 36.7,0 66.5,-29.8 66.5,-66.5 0,-36.7 -29.8,-66.5 -66.5,-66.5 -36.7,0 -66.5,29.8 -66.5,66.5 0,36.7 29.7,66.5 66.5,66.5 z" /><path
     style="fill:#222222;fill-opacity:1"
     inkscape:connector-curvature="0"
     id="path34"
     d="m 287.98329,339.5 c 47.6,0 86.2,38.6 86.2,86.2 0,47.6 -38.6,86.2 -86.2,86.2 -47.6,0 -86.2,-38.6 -86.2,-86.2 0,-47.6 38.6,-86.2 86.2,-86.2 z m 0,157.9 c 39.6,0 71.7,-32.1 71.7,-71.7 0,-39.6 -32.1,-71.7 -71.7,-71.7 -39.6,0 -71.7,32.1 -71.7,71.7 0,39.6 32.1,71.7 71.7,71.7 z" /><circle
     style="fill:#7b8584"
     transform="scale(-1,1)"
     r="5"
     id="circle36"
     cy="441.79999"
     cx="-441.58328" /><path
     style="fill:#b8002e;fill-opacity:1"
     inkscape:connector-curvature="0"
     id="path38"
     d="m 331.78329,316.4 c -1.3,0 -2.3,1 -2.3,2.3 v 3.4 c 0,1.3 1,2.3 2.3,2.3 h 143.5 c 1.3,0 2.3,-1 2.3,-2.3 v -3.4 c 0,-1.3 -1,-2.3 -2.3,-2.3 z" /><path
     style="fill:#b8002e;fill-opacity:1"
     inkscape:connector-curvature="0"
     id="path40"
     d="m 336.88329,317.4 c -0.9,-0.9 -2.3,-1 -3.3,-0.2 l -2.5,2.3 c -0.9,0.9 -1,2.3 -0.2,3.3 l 96.4,106.3 c 0.9,0.9 2.3,1 3.3,0.2 l 2.5,-2.3 c 0.9,-0.9 1,-2.3 0.2,-3.3 z" /><path
     style="fill:#b8002e;fill-opacity:1"
     inkscape:connector-curvature="0"
     id="path42"
     d="m 438.68329,440.4 c -0.3,1.2 0.4,2.5 1.6,2.8 l 3.3,0.9 c 1.2,0.3 2.5,-0.4 2.8,-1.6 l 42.4,-152.3 c 0.3,-1.2 -0.4,-2.5 -1.6,-2.8 l -3.3,-0.9 c -1.2,-0.3 -2.5,0.4 -2.8,1.6 z" /><path
     style="fill:#8c0023;fill-opacity:1"
     inkscape:connector-curvature="0"
     id="path44"
     d="m 472.38329,311.5 c -0.5,2 0.7,4 2.6,4.5 l 5.3,1.4 c 2,0.5 4,-0.7 4.5,-2.6 l 7.6,-28.8 c 0.5,-2 -0.7,-4 -2.6,-4.5 l -5.3,-1.4 c -2,-0.5 -4,0.7 -4.5,2.6 z" /><path
     style="fill:#b8002e;fill-opacity:1"
     inkscape:connector-curvature="0"
     id="path46"
     d="m 284.18329,425.1 c -0.5,1.2 0.2,2.5 1.3,3 l 3.2,1.2 c 1.2,0.5 2.5,-0.2 3,-1.3 l 43.9,-116.4 c 0.5,-1.2 -0.2,-2.5 -1.3,-3 l -3.2,-1.2 c -1.2,-0.5 -2.5,0.2 -3,1.3 z" /><path
     style="fill:#8c0023;fill-opacity:1"
     inkscape:connector-curvature="0"
     id="path48"
     d="m 319.58329,327.1 c -0.7,1.9 0.2,4.1 2.2,4.8 l 5.1,1.9 c 1.9,0.7 4.1,-0.2 4.8,-2.2 l 8,-23.9 c 0.7,-1.9 -0.2,-4.1 -2.2,-4.8 l -5.1,-1.9 c -1.9,-0.7 -4.1,0.2 -4.8,2.2 z" /><path
     style="fill:#151415"
     inkscape:connector-curvature="0"
     id="path50"
     d="m 449.18329,287.8 c 10.9,0 21.9,8.5 35.2,8.5 13.2,0 27.3,-8.3 29.2,-15.4 1.9,-7 -7,-11.5 -13.7,-8.1 -6.6,3.4 -11.3,7.3 -21.5,7.3 -10.2,0 -21.5,-0.6 -26.1,0.4 -4.6,1.1 -4.6,5.4 -3.1,7.3 z" /><path
     style="fill:#d0dfdf"
     inkscape:connector-curvature="0"
     id="path52"
     d="m 287.98329,418 c 4.2,0 7.6,3.4 7.6,7.7 0,4.3 -3.4,7.7 -7.6,7.7 -4.2,0 -7.6,-3.4 -7.6,-7.7 0,-4.2 3.4,-7.7 7.6,-7.7 z" /><path
     style="fill:#2e3131"
     inkscape:connector-curvature="0"
     id="path54"
     d="m 287.98329,421.9 c 2.1,0 3.8,1.7 3.8,3.9 0,2.1 -1.7,3.9 -3.8,3.9 -2.1,0 -3.8,-1.7 -3.8,-3.9 0,-2.2 1.7,-3.9 3.8,-3.9 z" /><path
     style="fill:#2c2e2e"
     inkscape:connector-curvature="0"
     id="path56"
     d="m 409.68329,398.3 c 0,1 0.8,1.9 1.9,1.9 h 30.1 c 1,0 1.9,-0.8 1.9,-1.9 v -2.4 c 0,-1 -0.8,-1.9 -1.9,-1.9 h -30.1 c -1,0 -1.9,0.8 -1.9,1.9 z" /><path
     style="fill:#2c2e2e"
     inkscape:connector-curvature="0"
     id="path58"
     d="m 434.48329,485.6 c 0,1 0.8,1.9 1.9,1.9 h 30.1 c 1,0 1.9,-0.8 1.9,-1.9 v -2.4 c 0,-1 -0.8,-1.9 -1.9,-1.9 h -30.1 c -1,0 -1.9,0.8 -1.9,1.9 z" /><polygon
     style="fill:#202121"
     transform="matrix(-1,0,0,1,836.08329,0)"
     id="polygon60"
     points="392.4,444 396.5,444 385.1,484.4 381.1,484.4 " /><polygon
     style="fill:#202121"
     transform="matrix(-1,0,0,1,836.08329,0)"
     id="polygon62"
     points="405.1,399.1 409.1,399.1 397.8,439.5 393.7,439.5 " /><path
     style="fill:#b8002e;fill-opacity:1"
     inkscape:connector-curvature="0"
     id="path64"
     d="m 538.28329,428.5 c 0.7,1.1 2.1,1.4 3.2,0.7 l 2.9,-1.8 c 1.1,-0.7 1.4,-2.1 0.7,-3.2 l -65.3,-104.2 c -0.7,-1.1 -2.1,-1.4 -3.2,-0.7 l -2.9,1.8 c -1.1,0.7 -1.4,2.1 -0.7,3.2 z" /><g
     transform="matrix(-1,0,0,1,836.08329,0)"
     id="g78">
	<g
   id="g68">
		<path
   style="fill:#565c5c"
   inkscape:connector-curvature="0"
   id="path66"
   d="m 296.5,413.6 c -0.1,0 -0.1,0 -0.2,0 l -0.9,-0.1 c -0.8,-0.1 -1.4,-0.8 -1.3,-1.5 0.1,-0.8 0.8,-1.4 1.5,-1.3 l 0.9,0.1 c 0.8,0.1 1.4,0.8 1.3,1.5 0,0.7 -0.6,1.3 -1.3,1.3 z" />
	</g>
	<g
   id="g72">
		<path
   style="fill:#565c5c"
   inkscape:connector-curvature="0"
   id="path70"
   d="m 395.3,422.6 c -0.1,0 -0.1,0 -0.2,0 l -1.9,-0.2 c -0.4,0 -0.7,-0.2 -0.9,-0.5 -0.3,0.2 -0.6,0.3 -1,0.3 l -1.9,-0.2 c -0.4,0 -0.7,-0.2 -0.9,-0.5 -0.3,0.2 -0.6,0.3 -1,0.3 l -1.9,-0.2 c -0.4,0 -0.7,-0.2 -0.9,-0.5 -0.3,0.2 -0.6,0.3 -1,0.3 l -1.9,-0.2 c -0.4,0 -0.7,-0.2 -0.9,-0.5 -0.3,0.2 -0.6,0.3 -1,0.3 l -1.9,-0.2 c -0.4,0 -0.7,-0.2 -0.9,-0.5 -0.3,0.2 -0.6,0.3 -1,0.3 l -1.9,-0.2 c -0.4,0 -0.7,-0.2 -0.9,-0.5 -0.3,0.2 -0.6,0.3 -1,0.3 l -1.9,-0.2 c -0.4,0 -0.7,-0.2 -0.9,-0.5 -0.3,0.2 -0.6,0.3 -1,0.3 l -1.9,-0.2 c -0.4,0 -0.7,-0.2 -0.9,-0.5 -0.3,0.2 -0.6,0.3 -1,0.3 l -1.9,-0.2 c -0.4,0 -0.7,-0.2 -0.9,-0.5 -0.3,0.2 -0.6,0.3 -1,0.3 l -1.9,-0.2 c -0.4,0 -0.7,-0.2 -0.9,-0.5 -0.3,0.2 -0.6,0.3 -1,0.3 l -1.9,-0.2 c -0.4,0 -0.7,-0.2 -0.9,-0.5 -0.3,0.2 -0.6,0.3 -1,0.3 l -1.9,-0.2 c -0.4,0 -0.7,-0.2 -0.9,-0.5 -0.3,0.2 -0.6,0.3 -1,0.3 l -1.9,-0.2 c -0.4,0 -0.7,-0.2 -0.9,-0.5 -0.3,0.2 -0.6,0.3 -1,0.3 l -1.9,-0.2 c -0.4,0 -0.7,-0.2 -0.9,-0.5 -0.3,0.2 -0.6,0.3 -1,0.3 l -1.9,-0.2 c -0.4,0 -0.7,-0.2 -0.9,-0.5 -0.3,0.2 -0.6,0.3 -1,0.3 l -1.9,-0.2 c -0.4,0 -0.7,-0.2 -0.9,-0.5 -0.3,0.2 -0.6,0.3 -1,0.3 l -1.9,-0.2 c -0.4,0 -0.7,-0.2 -0.9,-0.5 -0.3,0.2 -0.6,0.3 -1,0.3 l -1.9,-0.2 c -0.4,0 -0.7,-0.2 -0.9,-0.5 -0.3,0.2 -0.6,0.3 -1,0.3 l -1.9,-0.2 c -0.4,0 -0.7,-0.2 -0.9,-0.5 -0.3,0.2 -0.6,0.3 -1,0.3 l -1.9,-0.2 c -0.4,0 -0.7,-0.2 -0.9,-0.5 -0.3,0.2 -0.6,0.3 -1,0.3 l -1.9,-0.2 c -0.4,0 -0.7,-0.2 -0.9,-0.5 -0.3,0.2 -0.6,0.3 -1,0.3 l -1.9,-0.2 c -0.4,0 -0.7,-0.2 -0.9,-0.5 -0.3,0.2 -0.6,0.3 -1,0.3 l -1.9,-0.2 c -0.4,0 -0.7,-0.2 -0.9,-0.5 -0.3,0.2 -0.6,0.3 -1,0.3 l -1.9,-0.2 c -0.4,0 -0.7,-0.2 -0.9,-0.5 -0.3,0.2 -0.6,0.3 -1,0.3 l -1.9,-0.2 c -0.4,0 -0.7,-0.2 -0.9,-0.5 -0.3,0.2 -0.6,0.3 -1,0.3 l -1.9,-0.2 c -0.8,-0.1 -1.4,-0.8 -1.3,-1.5 0.1,-0.8 0.8,-1.3 1.5,-1.3 l 1.9,0.2 c 0.4,0 0.7,0.2 0.9,0.5 0.3,-0.2 0.6,-0.3 1,-0.3 l 1.9,0.2 c 0.4,0 0.7,0.2 0.9,0.5 0.3,-0.2 0.6,-0.3 1,-0.3 l 1.9,0.2 c 0.4,0 0.7,0.2 0.9,0.5 0.3,-0.2 0.6,-0.3 1,-0.3 l 1.9,0.2 c 0.4,0 0.7,0.2 0.9,0.5 0.3,-0.2 0.6,-0.3 1,-0.3 l 1.9,0.2 c 0.4,0 0.7,0.2 0.9,0.5 0.3,-0.2 0.6,-0.3 1,-0.3 l 1.9,0.2 c 0.4,0 0.7,0.2 0.9,0.5 0.3,-0.2 0.6,-0.3 1,-0.3 l 1.9,0.2 c 0.4,0 0.7,0.2 0.9,0.5 0.3,-0.2 0.6,-0.3 1,-0.3 l 1.9,0.2 c 0.4,0 0.7,0.2 0.9,0.5 0.3,-0.2 0.6,-0.3 1,-0.3 l 1.9,0.2 c 0.4,0 0.7,0.2 0.9,0.5 0.3,-0.2 0.6,-0.3 1,-0.3 l 1.9,0.2 c 0.4,0 0.7,0.2 0.9,0.5 0.3,-0.2 0.6,-0.3 1,-0.3 l 1.9,0.2 c 0.4,0 0.7,0.2 0.9,0.5 0.3,-0.2 0.6,-0.3 1,-0.3 l 1.9,0.2 c 0.4,0 0.7,0.2 0.9,0.5 0.3,-0.2 0.6,-0.3 1,-0.3 l 1.9,0.2 c 0.4,0 0.7,0.2 0.9,0.5 0.3,-0.2 0.6,-0.3 1,-0.3 l 1.9,0.2 c 0.4,0 0.7,0.2 0.9,0.5 0.3,-0.2 0.6,-0.3 1,-0.3 l 1.9,0.2 c 0.4,0 0.7,0.2 0.9,0.5 0.3,-0.2 0.6,-0.3 1,-0.3 l 1.9,0.2 c 0.4,0 0.7,0.2 0.9,0.5 0.3,-0.2 0.6,-0.3 1,-0.3 l 1.9,0.2 c 0.4,0 0.7,0.2 0.9,0.5 0.3,-0.2 0.6,-0.3 1,-0.3 l 1.9,0.2 c 0.4,0 0.7,0.2 0.9,0.5 0.3,-0.2 0.6,-0.3 1,-0.3 l 1.9,0.2 c 0.4,0 0.7,0.2 0.9,0.5 0.3,-0.2 0.6,-0.3 1,-0.3 l 1.9,0.2 c 0.4,0 0.7,0.2 0.9,0.5 0.3,-0.2 0.6,-0.3 1,-0.3 l 1.9,0.2 c 0.4,0 0.7,0.2 0.9,0.5 0.3,-0.2 0.6,-0.3 1,-0.3 l 1.9,0.2 c 0.4,0 0.7,0.2 0.9,0.5 0.3,-0.2 0.6,-0.3 1,-0.3 l 1.9,0.2 c 0.4,0 0.7,0.2 0.9,0.5 0.3,-0.2 0.6,-0.3 1,-0.3 l 1.9,0.2 c 0.4,0 0.7,0.2 0.9,0.5 0.3,-0.2 0.6,-0.3 1,-0.3 l 1.9,0.2 c 0.4,0 0.7,0.2 0.9,0.5 0.3,-0.2 0.6,-0.3 1,-0.3 l 1.9,0.2 c 0.8,0.1 1.4,0.8 1.3,1.5 0.1,0.7 -0.5,1.3 -1.3,1.3 z" />
	</g>
	<g
   id="g76">
		<path
   style="fill:#565c5c"
   inkscape:connector-curvature="0"
   id="path74"
   d="m 398.2,422.9 c -0.1,0 -0.1,0 -0.2,0 l -0.9,-0.1 c -0.8,-0.1 -1.4,-0.8 -1.3,-1.5 0.1,-0.8 0.8,-1.3 1.5,-1.3 l 0.9,0.1 c 0.8,0.1 1.4,0.8 1.3,1.5 0,0.7 -0.6,1.2 -1.3,1.3 z" />
	</g>
</g><g
     transform="matrix(-1,0,0,1,836.08329,0)"
     id="g92">
	<g
   id="g82">
		<path
   style="fill:#565c5c"
   inkscape:connector-curvature="0"
   id="path80"
   d="m 287.6,439.9 c -0.1,0 -0.1,0 -0.2,0 l -0.9,-0.2 c -0.8,-0.2 -1.2,-0.9 -1,-1.7 0.2,-0.8 0.9,-1.2 1.7,-1 l 0.9,0.2 c 0.8,0.2 1.2,0.9 1,1.7 -0.2,0.6 -0.8,1.1 -1.5,1 z" />
	</g>
	<g
   id="g86">
		<path
   style="fill:#565c5c"
   inkscape:connector-curvature="0"
   id="path84"
   d="m 384.1,463.1 c -0.1,0 -0.1,0 -0.2,0 l -1.9,-0.4 c -0.4,-0.1 -0.7,-0.3 -0.8,-0.6 -0.3,0.2 -0.7,0.2 -1,0.1 l -1.9,-0.4 c -0.4,-0.1 -0.7,-0.3 -0.8,-0.6 -0.3,0.2 -0.7,0.2 -1,0.1 l -1.9,-0.4 c -0.4,-0.1 -0.7,-0.3 -0.8,-0.6 -0.3,0.2 -0.7,0.2 -1,0.1 l -1.9,-0.4 c -0.4,-0.1 -0.7,-0.3 -0.8,-0.6 -0.3,0.2 -0.7,0.2 -1,0.1 l -1.9,-0.4 c -0.4,-0.1 -0.7,-0.3 -0.8,-0.6 -0.3,0.2 -0.7,0.2 -1,0.1 l -1.9,-0.4 c -0.4,-0.1 -0.7,-0.3 -0.8,-0.6 -0.3,0.2 -0.7,0.2 -1,0.1 l -1.9,-0.4 c -0.4,-0.1 -0.7,-0.3 -0.8,-0.6 -0.3,0.2 -0.7,0.2 -1,0.1 l -1.9,-0.4 c -0.4,-0.1 -0.7,-0.3 -0.8,-0.6 -0.3,0.2 -0.7,0.2 -1,0.1 l -1.9,-0.4 c -0.4,-0.1 -0.7,-0.3 -0.8,-0.6 -0.3,0.2 -0.7,0.2 -1,0.1 l -1.9,-0.4 c -0.4,-0.1 -0.7,-0.3 -0.8,-0.6 -0.3,0.2 -0.7,0.2 -1,0.1 l -1.9,-0.4 c -0.4,-0.1 -0.7,-0.3 -0.8,-0.6 -0.3,0.2 -0.7,0.2 -1,0.1 l -1.9,-0.4 c -0.4,-0.1 -0.6,-0.3 -0.8,-0.6 -0.3,0.2 -0.7,0.2 -1,0.1 l -1.9,-0.4 c -0.4,-0.1 -0.7,-0.3 -0.8,-0.6 -0.3,0.2 -0.7,0.2 -1,0.1 l -1.9,-0.4 c -0.4,-0.1 -0.7,-0.3 -0.8,-0.6 -0.3,0.2 -0.7,0.2 -1,0.1 l -1.9,-0.4 c -0.4,-0.1 -0.7,-0.3 -0.8,-0.6 -0.3,0.2 -0.7,0.2 -1,0.1 l -1.9,-0.4 c -0.4,-0.1 -0.7,-0.3 -0.8,-0.6 -0.3,0.2 -0.7,0.2 -1,0.1 l -1.9,-0.4 c -0.4,-0.1 -0.7,-0.3 -0.8,-0.6 -0.3,0.2 -0.7,0.2 -1,0.1 l -1.9,-0.4 c -0.4,-0.1 -0.7,-0.3 -0.8,-0.6 -0.3,0.2 -0.7,0.2 -1,0.1 l -1.9,-0.4 c -0.4,-0.1 -0.7,-0.3 -0.8,-0.6 -0.3,0.2 -0.7,0.2 -1,0.1 l -1.9,-0.4 c -0.4,-0.1 -0.7,-0.3 -0.8,-0.6 -0.3,0.2 -0.7,0.2 -1,0.1 l -1.9,-0.4 c -0.4,-0.1 -0.7,-0.3 -0.8,-0.6 -0.3,0.2 -0.7,0.2 -1,0.1 l -1.9,-0.4 c -0.4,-0.1 -0.7,-0.3 -0.8,-0.6 -0.3,0.2 -0.7,0.2 -1,0.1 l -1.9,-0.4 c -0.4,-0.1 -0.7,-0.3 -0.8,-0.6 -0.3,0.2 -0.7,0.2 -1,0.1 l -1.9,-0.4 c -0.4,-0.1 -0.6,-0.3 -0.8,-0.6 -0.3,0.2 -0.7,0.2 -1,0.1 l -1.9,-0.4 c -0.4,-0.1 -0.7,-0.3 -0.8,-0.6 -0.3,0.2 -0.7,0.2 -1,0.1 l -1.9,-0.4 c -0.8,-0.2 -1.2,-0.9 -1,-1.7 0.2,-0.8 0.9,-1.2 1.7,-1 l 1.9,0.4 c 0.4,0.1 0.7,0.3 0.8,0.6 0.3,-0.2 0.7,-0.2 1,-0.1 l 1.9,0.4 c 0.4,0.1 0.6,0.3 0.8,0.6 0.3,-0.2 0.7,-0.2 1,-0.1 l 1.9,0.4 c 0.4,0.1 0.7,0.3 0.8,0.6 0.3,-0.2 0.7,-0.2 1,-0.1 l 1.9,0.4 c 0.4,0.1 0.7,0.3 0.8,0.6 0.3,-0.2 0.7,-0.2 1,-0.1 l 1.9,0.4 c 0.4,0.1 0.6,0.3 0.8,0.6 0.3,-0.2 0.7,-0.2 1,-0.1 l 1.9,0.4 c 0.4,0.1 0.7,0.3 0.8,0.6 0.3,-0.2 0.7,-0.2 1,-0.1 l 1.9,0.4 c 0.4,0.1 0.7,0.3 0.8,0.6 0.3,-0.2 0.7,-0.2 1,-0.1 l 1.9,0.4 c 0.4,0.1 0.7,0.3 0.8,0.6 0.3,-0.2 0.7,-0.2 1,-0.1 l 1.9,0.4 c 0.4,0.1 0.7,0.3 0.8,0.6 0.3,-0.2 0.7,-0.2 1,-0.1 l 1.9,0.4 c 0.4,0.1 0.7,0.3 0.8,0.6 0.3,-0.2 0.7,-0.2 1,-0.1 l 1.9,0.4 c 0.4,0.1 0.6,0.3 0.8,0.6 0.3,-0.2 0.7,-0.2 1,-0.1 l 1.9,0.4 c 0.4,0.1 0.7,0.3 0.8,0.6 0.3,-0.2 0.7,-0.2 1,-0.1 l 1.9,0.4 c 0.4,0.1 0.7,0.3 0.8,0.6 0.3,-0.2 0.7,-0.2 1,-0.1 l 1.9,0.4 c 0.4,0.1 0.6,0.3 0.8,0.6 0.3,-0.2 0.7,-0.2 1,-0.1 l 1.9,0.4 c 0.4,0.1 0.7,0.3 0.8,0.6 0.3,-0.2 0.7,-0.2 1,-0.1 l 1.9,0.4 c 0.4,0.1 0.7,0.3 0.8,0.6 0.3,-0.2 0.7,-0.2 1,-0.1 l 1.9,0.4 c 0.4,0.1 0.7,0.3 0.8,0.6 0.3,-0.2 0.7,-0.2 1,-0.1 l 1.9,0.4 c 0.4,0.1 0.7,0.3 0.8,0.6 0.3,-0.2 0.7,-0.2 1,-0.1 l 1.9,0.4 c 0.4,0.1 0.7,0.3 0.8,0.6 0.3,-0.2 0.7,-0.2 1,-0.1 l 1.9,0.4 c 0.4,0.1 0.6,0.3 0.8,0.6 0.3,-0.2 0.7,-0.2 1,-0.1 l 1.9,0.4 c 0.4,0.1 0.7,0.3 0.8,0.6 0.3,-0.2 0.7,-0.2 1,-0.1 l 1.9,0.4 c 0.4,0.1 0.7,0.3 0.8,0.6 0.3,-0.2 0.7,-0.2 1,-0.1 l 1.9,0.4 c 0.4,0.1 0.7,0.3 0.8,0.6 0.3,-0.2 0.7,-0.2 1,-0.1 l 1.9,0.4 c 0.4,0.1 0.7,0.3 0.8,0.6 0.3,-0.2 0.7,-0.2 1,-0.1 l 1.9,0.4 c 0.4,0.1 0.7,0.3 0.8,0.6 0.3,-0.2 0.7,-0.2 1,-0.1 l 1.9,0.4 c 0.8,0.2 1.2,0.9 1,1.7 -0.2,0.7 -0.8,1.1 -1.5,1 z" />
	</g>
	<g
   id="g90">
		<path
   style="fill:#565c5c"
   inkscape:connector-curvature="0"
   id="path88"
   d="m 386.8,463.8 c -0.1,0 -0.1,0 -0.2,0 l -0.9,-0.2 c -0.8,-0.2 -1.2,-0.9 -1,-1.7 0.2,-0.8 0.9,-1.2 1.7,-1 l 0.9,0.2 c 0.8,0.2 1.2,0.9 1,1.7 -0.1,0.6 -0.8,1.1 -1.5,1 z" />
	</g>
</g><path
     style="fill:#2f2f2f"
     inkscape:connector-curvature="0"
     id="path94"
     d="m 541.58329,408 c 9.6,0 17.4,8 17.4,17.8 0,9.8 -7.8,17.8 -17.4,17.8 -9.6,0 -17.4,-8 -17.4,-17.8 0,-9.9 7.8,-17.8 17.4,-17.8 z" /><g
     style="opacity:0.4"
     transform="matrix(-1,0,0,1,836.08329,0)"
     id="g102">
	<g
   id="g100">
		<g
   id="g98">
			<path
   style="fill:#d0dfdf"
   inkscape:connector-curvature="0"
   id="path96"
   d="m 291.8,439.1 c -0.1,0 -0.2,0 -0.3,0 -0.3,-0.1 -0.5,-0.1 -0.8,-0.2 -0.8,-0.2 -1.2,-1.1 -1,-1.9 0.2,-0.8 1.1,-1.3 1.9,-1 0.2,0.1 0.4,0.1 0.6,0.2 0.8,0.2 1.3,1 1.1,1.8 -0.2,0.6 -0.8,1.1 -1.5,1.1 z m 6,-0.2 c -0.6,0 -1.2,-0.4 -1.4,-1.1 -0.2,-0.8 0.2,-1.7 1,-1.9 0.2,-0.1 0.4,-0.1 0.6,-0.2 0.8,-0.3 1.6,0.1 1.9,0.9 0.3,0.8 -0.1,1.7 -0.9,2 -0.3,0.1 -0.5,0.2 -0.8,0.3 -0.1,0 -0.2,0 -0.4,0 z M 286,435.8 c -0.4,0 -0.8,-0.2 -1.1,-0.5 -0.2,-0.2 -0.4,-0.4 -0.6,-0.6 -0.5,-0.6 -0.5,-1.6 0.2,-2.2 0.6,-0.6 1.6,-0.5 2.1,0.2 0.1,0.2 0.3,0.3 0.5,0.5 0.6,0.6 0.6,1.6 0,2.2 -0.4,0.2 -0.8,0.4 -1.1,0.4 z m 17.5,-0.5 c -0.3,0 -0.7,-0.1 -1,-0.4 -0.6,-0.6 -0.7,-1.5 -0.1,-2.2 0.1,-0.2 0.3,-0.3 0.4,-0.5 0.5,-0.7 1.4,-0.8 2.1,-0.3 0.7,0.5 0.8,1.5 0.3,2.1 -0.2,0.2 -0.4,0.5 -0.5,0.7 -0.4,0.4 -0.8,0.6 -1.2,0.6 z m -20.7,-5.6 c -0.7,0 -1.3,-0.5 -1.5,-1.2 -0.1,-0.3 -0.1,-0.6 -0.1,-0.9 -0.1,-0.8 0.5,-1.6 1.3,-1.7 0.8,-0.1 1.6,0.5 1.7,1.3 0,0.2 0.1,0.4 0.1,0.7 0.2,0.8 -0.4,1.6 -1.2,1.8 -0.1,0 -0.2,0 -0.3,0 z m 23.5,-0.7 c -0.1,0 -0.1,0 -0.2,0 -0.8,-0.1 -1.4,-0.9 -1.3,-1.7 0,-0.2 0.1,-0.4 0.1,-0.7 0.1,-0.8 0.8,-1.5 1.6,-1.4 0.8,0.1 1.4,0.8 1.4,1.6 0,0.3 -0.1,0.6 -0.1,0.9 -0.1,0.8 -0.8,1.3 -1.5,1.3 z m -23,-6.1 c -0.2,0 -0.4,0 -0.5,-0.1 -0.8,-0.3 -1.2,-1.2 -0.9,-2 0.1,-0.3 0.2,-0.5 0.3,-0.8 0.3,-0.8 1.2,-1.1 2,-0.8 0.8,0.4 1.1,1.3 0.7,2 -0.1,0.2 -0.2,0.4 -0.3,0.6 -0.1,0.7 -0.7,1.1 -1.3,1.1 z m 22,-0.6 c -0.6,0 -1.1,-0.3 -1.4,-0.9 -0.1,-0.2 -0.2,-0.4 -0.3,-0.6 -0.4,-0.7 -0.1,-1.7 0.6,-2.1 0.7,-0.4 1.6,-0.1 2,0.6 0.1,0.3 0.3,0.5 0.4,0.8 0.3,0.8 0,1.7 -0.7,2 -0.1,0.1 -0.3,0.2 -0.6,0.2 z m -17.9,-4.8 c -0.5,0 -0.9,-0.2 -1.2,-0.6 -0.5,-0.7 -0.4,-1.6 0.3,-2.1 0.2,-0.2 0.5,-0.3 0.7,-0.5 0.7,-0.5 1.6,-0.3 2.1,0.5 0.4,0.7 0.2,1.7 -0.5,2.1 -0.2,0.1 -0.4,0.2 -0.5,0.4 -0.3,0.1 -0.6,0.2 -0.9,0.2 z m 13.6,-0.4 c -0.3,0 -0.6,-0.1 -0.8,-0.2 -0.2,-0.1 -0.4,-0.2 -0.6,-0.3 -0.7,-0.4 -1,-1.3 -0.6,-2.1 0.4,-0.7 1.3,-1 2,-0.6 0.2,0.1 0.5,0.3 0.7,0.5 0.7,0.5 0.9,1.4 0.4,2.1 -0.2,0.3 -0.6,0.6 -1.1,0.6 z m -7.3,-2 c -0.8,0 -1.4,-0.6 -1.5,-1.4 -0.1,-0.8 0.6,-1.6 1.4,-1.6 0.3,0 0.6,0 0.9,0 0.8,0 1.5,0.7 1.5,1.5 0,0.8 -0.6,1.5 -1.5,1.5 0,0 -0.1,0 -0.1,0 -0.1,0 -0.4,0 -0.7,0 0.1,0 0.1,0 0,0 z" />
		</g>
	</g>
</g><path
     style="fill:#b8002e;fill-opacity:1"
     inkscape:connector-curvature="0"
     id="path104"
     d="m 544.28329,430.4 c 1.3,-0.2 2.1,-1.4 1.9,-2.7 l -0.5,-3.4 c -0.2,-1.3 -1.4,-2.1 -2.7,-1.9 l -102.4,15.6 c -1.3,0.2 -2.1,1.4 -1.9,2.7 l 0.5,3.4 c 0.2,1.3 1.4,2.1 2.7,1.9 z" /><path
     style="fill:#d0dfdf"
     inkscape:connector-curvature="0"
     id="path106"
     d="m 541.58329,418 c 4.2,0 7.6,3.4 7.6,7.7 0,4.3 -3.4,7.7 -7.6,7.7 -4.2,0 -7.6,-3.4 -7.6,-7.7 0.1,-4.2 3.5,-7.7 7.6,-7.7 z" /><path
     style="fill:#2e3131"
     inkscape:connector-curvature="0"
     id="path108"
     d="m 541.58329,421.9 c 2.1,0 3.8,1.7 3.8,3.9 0,2.1 -1.7,3.9 -3.8,3.9 -2.1,0 -3.8,-1.7 -3.8,-3.9 0.1,-2.2 1.7,-3.9 3.8,-3.9 z" /><g
     transform="matrix(-1,0,0,1,836.08329,0)"
     id="g120">
	<polygon
   style="fill:#d0dfdf"
   id="polygon110"
   points="396.3,437.7 396.3,422.2 391.1,422.2 391.1,437.7 378,429.3 375.2,433.7 388.9,442.6 375.2,451.4 378,455.8 391.1,447.4 391.1,462.9 396.3,462.9 396.3,447.4 409.4,455.8 412.2,451.4 398.5,442.6 412.2,433.7 409.4,429.3 " />
	<path
   style="fill:#515757"
   inkscape:connector-curvature="0"
   id="path112"
   d="m 417.7,436.3 c -0.5,-0.6 -1,-1.3 -1.2,-1.6 -0.1,-0.4 -0.1,-1.3 -0.1,-2.1 0.1,-1.8 0.2,-4 -1.2,-5.8 -1.4,-1.9 -3.5,-2.4 -5.2,-2.9 -0.8,-0.2 -1.6,-0.4 -2,-0.7 -0.3,-0.2 -0.8,-1 -1.2,-1.7 -1,-1.5 -2.2,-3.4 -4.4,-4.1 -0.6,-0.2 -1.2,-0.3 -1.8,-0.3 -1.5,0 -2.9,0.5 -4.1,1 -0.8,0.3 -1.6,0.6 -2.1,0.6 -0.5,0 -1.3,-0.3 -2.1,-0.6 -1.2,-0.5 -2.6,-1 -4.1,-1 -0.6,0 -1.2,0.1 -1.8,0.3 -2.2,0.7 -3.4,2.6 -4.4,4.1 -0.4,0.6 -0.9,1.4 -1.2,1.6 -0.3,0.3 -1.2,0.5 -2,0.7 -1.7,0.5 -3.9,1 -5.2,2.9 -1.4,1.9 -1.2,4.1 -1.2,5.8 0,0.8 0.1,1.7 -0.1,2.1 -0.1,0.4 -0.7,1.1 -1.2,1.6 -1.1,1.4 -2.6,3.1 -2.6,5.5 0,2.4 1.4,4.1 2.6,5.5 0.5,0.6 1,1.3 1.2,1.6 0.1,0.4 0.1,1.3 0.1,2.1 -0.1,1.8 -0.2,4 1.2,5.8 1.4,1.9 3.5,2.4 5.2,2.9 0.8,0.2 1.6,0.4 2,0.7 0.3,0.2 0.8,1 1.2,1.6 1,1.5 2.2,3.4 4.4,4.1 0.6,0.2 1.2,0.3 1.8,0.3 1.5,0 2.9,-0.5 4.1,-1 0.8,-0.3 1.6,-0.6 2.1,-0.6 0.5,0 1.3,0.3 2.1,0.6 1.2,0.5 2.6,1 4.1,1 0.6,0 1.2,-0.1 1.8,-0.3 2.2,-0.7 3.4,-2.6 4.4,-4.1 0.4,-0.6 0.9,-1.4 1.2,-1.6 0.3,-0.3 1.2,-0.5 2,-0.7 1.7,-0.5 3.9,-1 5.2,-2.9 1.4,-1.9 1.2,-4.1 1.2,-5.8 0,-0.8 -0.1,-1.7 0.1,-2.1 0.1,-0.4 0.7,-1.1 1.2,-1.6 1.1,-1.4 2.6,-3.1 2.6,-5.5 0,-2.4 -1.5,-4 -2.6,-5.4 z m -23.2,22.4 c -9.3,0 -16.9,-7.6 -16.9,-16.9 0,-9.3 7.6,-16.9 16.9,-16.9 9.3,0 16.9,7.6 16.9,16.9 0,9.4 -7.6,16.9 -16.9,16.9 z" />
	<circle
   style="fill:#4f5455"
   id="circle114"
   r="11"
   cy="441.79999"
   cx="394.5" />
	<circle
   style="fill:#616968"
   id="circle116"
   r="7.1999998"
   cy="441.79999"
   cx="394.5" />
	<circle
   style="fill:#393d3d"
   id="circle118"
   r="3.2"
   cy="441.79999"
   cx="394.5" />
</g><polygon
     style="fill:#ebc9ac"
     transform="matrix(-1,0,0,1,836.08329,0)"
     id="polygon122"
     points="456.7,165.4 481.8,152.6 470.3,136.4 452.6,142.7 " /><path
     style="fill:#d3ad8d"
     inkscape:connector-curvature="0"
     id="path124"
     d="m 311.98329,251.7 c 1.4,0.2 15.9,-1.6 17.7,-1.7 1.9,-0.1 50.1,-5.7 56.6,-5.3 0,0 -5,-43.6 -4.4,-57 l 26.9,0.8 c 0,0 -0.6,44.9 -2.4,55.2 -1.8,10.3 -3.2,12.4 -9.4,13.9 -6.2,1.5 -66.8,3.4 -66.8,3.4 0,0 -1.3,7.9 -6.4,8.8 -5.1,1 -9.9,0.7 -9.9,0.7 0,0 -6.8,1.6 -8.2,-2.1 -1.6,-3.5 4.9,-16.8 6.3,-16.7 z" /><path
     style="fill:#1a1a1a"
     inkscape:connector-curvature="0"
     id="path126"
     d="m 409.38329,198.4 -29.4,-3.9 c 0,0 -5.6,-41.1 16,-37.9 21.5,3.2 13.4,41.8 13.4,41.8 z" /><polygon
     style="fill:#ebc9ac"
     transform="matrix(-1,0,0,1,836.08329,0)"
     id="polygon128"
     points="416.5,363.5 409.1,374.2 391.6,371.4 398.5,359.6 " /><polygon
     style="fill:#9a958d"
     transform="matrix(-1,0,0,1,836.08329,0)"
     id="polygon130"
     points="412.2,371.4 409.5,376.6 395.9,380.4 389.1,374.3 392.6,366.7 " /><g
     transform="matrix(-1,0,0,1,836.08329,0)"
     id="g136">
	<path
   style="fill:#533118"
   inkscape:connector-curvature="0"
   id="path132"
   d="m 385.8,391.6 h 59.5 c 0,0 -0.3,-8 -3.4,-10.1 -3.1,-2.1 -25.6,-7.6 -28.7,-8.1 -3.1,-0.5 -8.9,4.6 -15.4,4.6 -6.5,0 -7.8,-4.8 -9.6,-6.4 -1.8,-1.7 -5.4,14.2 -2.4,20 z" />
	<rect
   style="fill:#a57f60"
   id="rect134"
   height="2.4000001"
   width="59.5"
   y="391.60001"
   x="385.79999" />
</g><path
     style="fill:#0357a2;fill-opacity:1"
     inkscape:connector-curvature="0"
     id="path138"
     d="m 444.78329,361.9 -25.5,8.6 c 0,0 -59.4,-54.4 -67.5,-63.3 -8,-8.9 -8.5,-17.8 0,-20.8 8.4,-3 88.3,-34.5 92.9,-34.9 4.5,-0.4 66.4,8.7 66.4,8.7 0,0 -0.7,18.6 -11.7,23.8 -35.5,16.8 -106.7,23.3 -106.7,23.3 z" /><path
     style="fill:#292828"
     inkscape:connector-curvature="0"
     id="path140"
     d="m 442.38329,252.1 c 0,0 34.3,12.6 68,12.3 12.2,-0.1 19.7,-9.2 19.7,-9.2 -0.3,-3.4 -20.1,-59.6 -78.6,-92.1 -18.2,-10.1 -42.3,-18.5 -67.9,-21.5 0,0 -8.4,32.9 0,46 8.5,13 25,6.7 58.8,64.5 z" /><path
     style="fill:#333333"
     inkscape:connector-curvature="0"
     id="path142"
     d="m 387.28329,141.5 -4.5,-1 c 0,0 -3.4,12 -4.5,24.5 l 1.7,3.1 z" /><path
     style="fill:#ebc9ac"
     inkscape:connector-curvature="0"
     id="path144"
     d="m 364.18329,146.3 c 0,0 -7.8,9.2 -13.2,12.3 -5.4,3.1 -22.4,9.2 -23.6,7.8 -1.2,-1.4 -7.1,-15.1 -8.3,-22.4 0,0 -6.6,1.4 -7.6,1.7 0,0 1.2,-15.3 2.6,-23.4 0,0 -2.6,-12.7 1.2,-21 3.8,-8.3 39.6,-19.8 52.7,-5.4 13.2,14.2 -3.8,50.4 -3.8,50.4 z" /><path
     style="fill:#562b15"
     inkscape:connector-curvature="0"
     id="path146"
     d="m 346.58329,137.1 c 0,0 3,-10.1 -0.6,-14.8 -3.6,-4.7 -10.8,-6.4 -11,-15.1 -0.2,-8.7 -18.1,2.6 -21.6,2.1 -3.5,-0.4 -11.8,-17 0,-25.7 0,0 -2.8,4.2 -1.9,9.5 0,0 -0.5,-9.3 13,-14.9 0,0 -3.4,3.9 -3.8,10.4 0,0 5.3,-10.4 18.2,-10.4 0,0 -4.7,2.1 -6.6,5.3 0,0 9.3,-5.3 30.8,1.5 21.4,6.8 11.2,33.1 9.8,38.2 -1.3,5.1 -1.1,11.3 2.9,12.2 0,0 -7.3,5.2 -9.6,1.6 -2.3,-3.6 -4.2,-11.4 -4.2,-11.4 0,0 -6.4,-1.1 -7,-0.2 -0.6,0.8 -0.2,11.6 -0.2,11.6 h -8.2 z" /><ellipse
     style="fill:#ebc9ac;stroke-width:0.99996358"
     id="ellipse148"
     ry="7.7997165"
     rx="6.3997674"
     cy="-40.574554"
     cx="-377.75961"
     transform="matrix(-0.90793304,-0.41911525,-0.41911525,0.90793304,0,0)" /><g
     transform="matrix(-1,0,0,1,836.08329,0)"
     id="g154">
	<circle
   style="fill:#21201f"
   id="circle150"
   r="3"
   cy="126.2"
   cx="511.20001" />
	<circle
   style="fill:#ffffff"
   id="circle152"
   r="1"
   cy="125.5"
   cx="511.20001" />
</g><path
     style="fill:#562b15"
     inkscape:connector-curvature="0"
     id="path156"
     d="m 319.98329,119.2 c 0,0.7 0.6,1.3 1.3,1.3 h 8.7 c 0.7,0 1.3,-0.6 1.3,-1.3 v 0 c 0,-0.7 -0.6,-1.3 -1.3,-1.3 h -8.7 c -0.7,0.1 -1.3,0.6 -1.3,1.3 z" /><path
     style="fill:#ffffff"
     inkscape:connector-curvature="0"
     id="path158"
     d="m 331.28329,147.2 c 0,0 -3.5,2.3 -10.6,3.5 0,0 0.6,2.1 1.2,3.7 -0.1,0 5.8,-1.6 9.4,-7.2 z" /><path
     style="fill:#876120"
     inkscape:connector-curvature="0"
     id="path160"
     d="m 511.18329,234.4 -9.8,2.9 c -25.9,-75.8 -94.2,-91.4 -94.2,-91.4 -7.8,-1.8 -14.5,-3 -14.5,-3 47.5,2.9 97.9,22.7 118.5,91.5 z" /><path
     style="fill:#876120"
     inkscape:connector-curvature="0"
     id="path162"
     d="m 444.48329,252.7 c 0,0 -13,-11.8 -23.7,-32.5 -4.3,-5.5 -7.5,-8.5 -7.5,-8.5 l -5.4,-4.6 c 0,0 6.9,27 25.4,49.2 z" /><g
     transform="matrix(-1,0,0,1,836.08329,0)"
     id="g184">
	<g
   id="g178">
		<g
   id="g168">
			
				<rect
   style="fill:#74521e"
   id="rect164"
   height="12.3"
   width="11"
   transform="matrix(0.9609,0.2769,-0.2769,0.9609,79.6955,-81.5791)"
   y="235.2"
   x="323.10001" />
			
				<rect
   style="fill:#74521e"
   id="rect166"
   height="12.3"
   width="11"
   transform="matrix(0.9609,0.2769,-0.2769,0.9609,87.5683,-99.1667)"
   y="254.3"
   x="389.39999" />
		</g>
		<path
   style="fill:#876120"
   inkscape:connector-curvature="0"
   id="path170"
   d="m 385.2,313.8 c -0.2,0.8 -1.1,1.3 -1.8,1 l -73.9,-21.3 c -0.8,-0.2 -1.3,-1.1 -1,-1.8 l 14.1,-49 c 0.2,-0.8 1.1,-1.3 1.8,-1 l 73.9,21.3 c 0.8,0.2 1.3,1.1 1,1.8 z" />
		<path
   style="fill:#976e25"
   inkscape:connector-curvature="0"
   id="path172"
   d="m 387.3,296.9 c -0.7,2.4 -3.2,3.8 -5.5,3.1 l -63,-18.2 c -2.4,-0.7 -3.8,-3.2 -3.1,-5.5 l 9.8,-33.8 c 0.7,-2.4 3.2,-3.8 5.5,-3.1 l 63,18.2 c 2.4,0.7 3.8,3.2 3.1,5.5 z" />
		<path
   style="fill:#c1af43"
   inkscape:connector-curvature="0"
   id="path174"
   d="m 359.1,295.9 c -0.2,0.8 -1.1,1.3 -1.8,1 l -16.2,-4.7 c -0.8,-0.2 -1.3,-1.1 -1,-1.8 l 1.7,-5.8 c 0.2,-0.8 1.1,-1.3 1.8,-1 l 16.2,4.7 c 0.8,0.2 1.3,1.1 1,1.8 z" />
		<path
   style="fill:#9f8e32"
   inkscape:connector-curvature="0"
   id="path176"
   d="m 357.2,293.7 c -0.1,0.4 -0.5,0.6 -0.9,0.5 l -12.8,-3.7 c -0.4,-0.1 -0.6,-0.5 -0.5,-0.9 l 0.8,-2.7 c 0.1,-0.4 0.5,-0.6 0.9,-0.5 l 12.8,3.7 c 0.4,0.1 0.6,0.5 0.5,0.9 z" />
	</g>
	<path
   style="fill:#63471c"
   inkscape:connector-curvature="0"
   id="path180"
   d="m 336.9,238.4 c -0.1,0.4 -0.5,0.6 -0.9,0.5 l -12.2,-3.5 c -0.4,-0.1 -0.6,-0.5 -0.5,-0.9 l 0.5,-1.9 c 0.1,-0.4 0.5,-0.6 0.9,-0.5 l 12.2,3.5 c 0.4,0.1 0.6,0.5 0.5,0.9 z" />
	<path
   style="fill:#63471c"
   inkscape:connector-curvature="0"
   id="path182"
   d="m 403.1,257.5 c -0.1,0.4 -0.5,0.6 -0.9,0.5 L 390,254.5 c -0.4,-0.1 -0.6,-0.5 -0.5,-0.9 l 0.5,-1.9 c 0.1,-0.4 0.5,-0.6 0.9,-0.5 l 12.2,3.5 c 0.4,0.1 0.6,0.5 0.5,0.9 z" />
</g><path
     style="fill:#ebc9ac"
     inkscape:connector-curvature="0"
     id="path186"
     d="m 414.68329,191.5 c 0,0 -3,48.9 -5.4,60 -2.4,11.2 -3.9,13.3 -10.5,14.6 -6.5,1.3 -69.3,0 -69.3,0 0,0 -1.8,8.5 -7.1,9.3 -5.3,0.8 -10.3,0.2 -10.3,0.2 0,0 -7.1,1.4 -8.4,-2.8 -1.3,-4.2 6.1,-18.3 7.5,-18 1.5,0.3 16.5,-0.8 18.4,-0.8 1.9,0 52.2,-3.4 58.8,-2.6 0,0 -2.9,-47.7 -1.5,-62.3 z" /><circle
     style="fill:#2f2f2f"
     transform="scale(-1,1)"
     r="7.9000001"
     id="circle188"
     cy="274"
     cx="-316.78329" /><circle
     style="fill:#d0dfdf"
     transform="scale(-1,1)"
     r="4.0999999"
     id="circle190"
     cy="274"
     cx="-316.78329" /><path
     style="fill:#333333"
     inkscape:connector-curvature="0"
     id="path192"
     d="m 416.88329,200.2 -31.7,-3.5 c 0,0 -8.8,-40.4 13,-39.9 21.8,0.4 18.7,43.4 18.7,43.4 z" /></g></svg>