<?xml version="1.0" encoding="UTF-8" standalone="no"?>
<!-- Generator: Adobe Illustrator 18.0.0, SVG Export Plug-In . SVG Version: 6.00 Build 0)  -->

<svg
   xmlns:dc="http://purl.org/dc/elements/1.1/"
   xmlns:cc="http://creativecommons.org/ns#"
   xmlns:rdf="http://www.w3.org/1999/02/22-rdf-syntax-ns#"
   xmlns:svg="http://www.w3.org/2000/svg"
   xmlns="http://www.w3.org/2000/svg"
   xmlns:sodipodi="http://sodipodi.sourceforge.net/DTD/sodipodi-0.dtd"
   xmlns:inkscape="http://www.inkscape.org/namespaces/inkscape"
   version="1.1"
   id="Layer_1"
   x="0px"
   y="0px"
   viewBox="0 0 841.9 595.3"
   enable-background="new 0 0 841.9 595.3"
   xml:space="preserve"
   sodipodi:docname="nuvens-1.svg"
   inkscape:version="0.92.3 (2405546, 2018-03-11)"><metadata
   id="metadata199"><rdf:RDF><cc:Work
       rdf:about=""><dc:format>image/svg+xml</dc:format><dc:type
         rdf:resource="http://purl.org/dc/dcmitype/StillImage" /><dc:title></dc:title></cc:Work></rdf:RDF></metadata><defs
   id="defs197" /><sodipodi:namedview
   pagecolor="#ffffff"
   bordercolor="#666666"
   borderopacity="1"
   objecttolerance="10"
   gridtolerance="10"
   guidetolerance="10"
   inkscape:pageopacity="0"
   inkscape:pageshadow="2"
   inkscape:window-width="1600"
   inkscape:window-height="837"
   id="namedview195"
   showgrid="false"
   inkscape:zoom="0.96419831"
   inkscape:cx="196.82679"
   inkscape:cy="318.94135"
   inkscape:window-x="-8"
   inkscape:window-y="-8"
   inkscape:window-maximized="1"
   inkscape:current-layer="Layer_1"
   showguides="false" />
























































<path
   style="fill:#ffffff"
   inkscape:connector-curvature="0"
   id="path50-3"
   d="m 692.84255,51.571187 c 0.6,-2 0.9,-4 0.9,-6.1 0,-12.4 -10.1,-22.5 -22.5,-22.5 -9.1,0 -16.9,5.4 -20.5,13.2 -1.8,-0.8 -3.7,-1.3 -5.8,-1.3 -7.6,0 -13.8,6.2 -13.8,13.9 0,0.6 0,1.3 0.1,1.9 -5.9,1.6 -10.2,7 -10.2,13.4 0,7.7 6.2,13.9 13.8,13.9 h 51.7 c 7.6,0 13.8,-6.2 13.8,-13.9 0.1,-5.6 -3,-10.3 -7.5,-12.5 z" /><path
   style="fill:#ffffff"
   inkscape:connector-curvature="0"
   id="path52-7"
   d="m 665.14338,181.17119 c -0.7,-2.6 -1.1,-5.3 -1.1,-8.1 0,-16.4 13.3,-29.7 29.6,-29.7 12,0 22.3,7.2 27,17.5 2.3,-1.1 4.9,-1.7 7.6,-1.7 10.1,0 18.2,8.2 18.2,18.3 0,0.8 -0.1,1.7 -0.2,2.5 7.7,2.1 13.4,9.2 13.4,17.6 0,10.1 -8.2,18.3 -18.2,18.3 h -68.1 c -10.1,0 -18.2,-8.2 -18.2,-18.3 -0.1,-7.2 4,-13.4 10,-16.4 z" /><path
   style="fill:#ffffff;fill-opacity:1"
   inkscape:connector-curvature="0"
   id="path42-2-9"
   d="m 112.07355,89.210208 c -1,-3.4 -1.5,-7.1 -1.5,-10.8 0,-21.900002 17.7,-39.600002 39.4,-39.600002 16,0 29.7,9.5 35.9,23.200002 3.1,-1.4 6.5,-2.2 10.1,-2.2 13.4,0 24.2,10.9 24.2,24.3 0,1.1 -0.1,2.2 -0.2,3.3 10.3,2.8 17.9,12.2 17.9,23.500002 0,13.4 -10.9,24.3 -24.2,24.3 h -90.8 c -13.4,0 -24.199997,-10.9 -24.199997,-24.3 0,-9.5 5.499997,-17.700002 13.399997,-21.700002 z" /></svg>