<?xml version="1.0" encoding="UTF-8" standalone="no"?>
<!-- Generator: Adobe Illustrator 18.0.0, SVG Export Plug-In . SVG Version: 6.00 Build 0)  -->

<svg
   xmlns:dc="http://purl.org/dc/elements/1.1/"
   xmlns:cc="http://creativecommons.org/ns#"
   xmlns:rdf="http://www.w3.org/1999/02/22-rdf-syntax-ns#"
   xmlns:svg="http://www.w3.org/2000/svg"
   xmlns="http://www.w3.org/2000/svg"
   xmlns:sodipodi="http://sodipodi.sourceforge.net/DTD/sodipodi-0.dtd"
   xmlns:inkscape="http://www.inkscape.org/namespaces/inkscape"
   version="1.1"
   id="Layer_1"
   x="0px"
   y="0px"
   viewBox="0 0 841.9 595.3"
   enable-background="new 0 0 841.9 595.3"
   xml:space="preserve"
   sodipodi:docname="nuvens-2.svg"
   inkscape:version="0.92.3 (2405546, 2018-03-11)"><metadata
   id="metadata199"><rdf:RDF><cc:Work
       rdf:about=""><dc:format>image/svg+xml</dc:format><dc:type
         rdf:resource="http://purl.org/dc/dcmitype/StillImage" /><dc:title></dc:title></cc:Work></rdf:RDF></metadata><defs
   id="defs197" /><sodipodi:namedview
   pagecolor="#ffffff"
   bordercolor="#666666"
   borderopacity="1"
   objecttolerance="10"
   gridtolerance="10"
   guidetolerance="10"
   inkscape:pageopacity="0"
   inkscape:pageshadow="2"
   inkscape:window-width="1600"
   inkscape:window-height="837"
   id="namedview195"
   showgrid="false"
   inkscape:zoom="0.96419831"
   inkscape:cx="580.7775"
   inkscape:cy="318.94135"
   inkscape:window-x="-8"
   inkscape:window-y="-8"
   inkscape:window-maximized="1"
   inkscape:current-layer="Layer_1"
   showguides="false" />
























































<path
   style="fill:#6ab2f3;fill-opacity:1"
   inkscape:connector-curvature="0"
   id="path42-2"
   d="m 487.94255,98.071187 c -1,-3.4 -1.5,-7.1 -1.5,-10.8 0,-21.9 17.7,-39.6 39.4,-39.6 16,0 29.7,9.5 35.9,23.2 3.1,-1.4 6.5,-2.2 10.1,-2.2 13.4,0 24.2,10.9 24.2,24.3 0,1.1 -0.1,2.2 -0.2,3.3 10.3,2.8 17.9,12.200003 17.9,23.500003 0,13.4 -10.9,24.3 -24.2,24.3 h -90.8 c -13.4,0 -24.2,-10.9 -24.2,-24.3 0,-9.5 5.5,-17.7 13.4,-21.700003 z" /><path
   style="fill:#6ab2f3;fill-opacity:1"
   inkscape:connector-curvature="0"
   id="path50-3-2"
   d="m 316.97355,42.710206 c 0.6,-2 0.9,-4 0.9,-6.1 0,-12.4 -10.1,-22.5 -22.5,-22.5 -9.1,0 -16.9,5.4 -20.5,13.2 -1.8,-0.8 -3.7,-1.3 -5.8,-1.3 -7.6,0 -13.8,6.2 -13.8,13.9 0,0.6 0,1.3 0.1,1.9 -5.9,1.6 -10.2,7 -10.2,13.4 0,7.700002 6.2,13.900002 13.8,13.900002 h 51.7 c 7.6,0 13.8,-6.2 13.8,-13.900002 0.1,-5.6 -3,-10.3 -7.5,-12.5 z" /></svg>