<?xml version="1.0" encoding="UTF-8" standalone="no"?>
<svg
   xmlns:dc="http://purl.org/dc/elements/1.1/"
   xmlns:cc="http://creativecommons.org/ns#"
   xmlns:rdf="http://www.w3.org/1999/02/22-rdf-syntax-ns#"
   xmlns:svg="http://www.w3.org/2000/svg"
   xmlns="http://www.w3.org/2000/svg"
   xmlns:sodipodi="http://sodipodi.sourceforge.net/DTD/sodipodi-0.dtd"
   xmlns:inkscape="http://www.inkscape.org/namespaces/inkscape"
   width="258"
   height="71"
   viewBox="0 0 258 71"
   fill="none"
   version="1.1"
   id="svg46"
   sodipodi:docname="logo-footer.svg"
   inkscape:version="0.92.3 (2405546, 2018-03-11)">
  <metadata
     id="metadata52">
    <rdf:RDF>
      <cc:Work
         rdf:about="">
        <dc:format>image/svg+xml</dc:format>
        <dc:type
           rdf:resource="http://purl.org/dc/dcmitype/StillImage" />
        <dc:title></dc:title>
      </cc:Work>
    </rdf:RDF>
  </metadata>
  <defs
     id="defs50" />
  <sodipodi:namedview
     pagecolor="#ffffff"
     bordercolor="#666666"
     borderopacity="1"
     objecttolerance="10"
     gridtolerance="10"
     guidetolerance="10"
     inkscape:pageopacity="0"
     inkscape:pageshadow="2"
     inkscape:window-width="1600"
     inkscape:window-height="837"
     id="namedview48"
     showgrid="false"
     inkscape:zoom="1.1124031"
     inkscape:cx="-70.992904"
     inkscape:cy="35.5"
     inkscape:window-x="-8"
     inkscape:window-y="-8"
     inkscape:window-maximized="1"
     inkscape:current-layer="svg46" />
  <path
     d="M17.5624 11.7128H11.987V5.99583C11.987 5.29864 11.8477 4.74088 11.7083 4.60145C11.4295 4.32257 11.0113 4.32257 10.3144 4.32257H7.24797C6.55105 4.32257 5.99352 4.46201 5.85413 4.60145C5.57536 4.88032 5.43598 5.29864 5.43598 5.99583V31.6524C5.43598 32.3496 5.57536 32.9073 5.85413 33.0468C6.1329 33.3256 6.55105 33.3256 7.24797 33.3256H10.3144C11.0113 33.3256 11.5689 33.1862 11.7083 33.0468C11.987 32.7679 11.987 32.3496 11.987 31.6524V25.9354H17.5624V32.3496C17.5624 35.975 15.611 37.6482 11.987 37.6482H5.57536C1.81199 37.6482 0 35.8355 0 32.3496V5.29864C0 1.81269 1.81199 0 5.57536 0H11.987C15.7504 0 17.5624 1.81269 17.5624 5.29864V11.7128Z"
     transform="translate(0 33.3517)"
     fill="#134D5E"
     id="path2"
     style="fill:#fffff4;fill-opacity:1" />
  <path
     d="M5.57537 0H12.2658C16.0292 0 17.8412 1.81269 17.8412 5.29864V32.3496C17.8412 35.8355 16.0292 37.6482 12.2658 37.6482H5.57537C1.81199 37.6482 0 35.8355 0 32.3496V5.29864C0 1.67325 1.81199 0 5.57537 0ZM12.4052 31.3735V6.13526C12.4052 5.43807 12.2658 4.88032 11.987 4.74089C11.7083 4.60145 11.2901 4.46201 10.5932 4.46201H7.10859C6.41167 4.46201 5.85413 4.60145 5.71475 4.74089C5.57537 4.88032 5.43598 5.43807 5.43598 6.13526V31.5129C5.43598 32.2101 5.57537 32.7679 5.71475 32.9073C5.99352 33.1862 6.41167 33.1862 7.10859 33.1862H10.5932C11.2901 33.1862 11.8477 33.0468 11.987 32.9073C12.4052 32.6284 12.4052 32.2101 12.4052 31.3735Z"
     transform="translate(22.5802 33.3517)"
     fill="#134D5E"
     id="path4"
     style="fill:#fffff4;fill-opacity:1" />
  <path
     d="M13.3809 0H18.3987V37.6482H12.9627L5.01783 10.4578V37.6482H0V0H5.71475L13.3809 26.3537V0Z"
     transform="translate(46.4149 33.3517)"
     fill="#134D5E"
     id="path6"
     style="fill:#fffff4;fill-opacity:1" />
  <path
     d="M11.5689 31.3735V22.1706C11.5689 21.4734 11.4295 20.9157 11.2901 20.7762C11.0113 20.4974 10.5932 20.4974 9.89628 20.4974H5.43598C1.812 20.4974 0 18.6847 0 15.1987V5.29864C0 1.81269 1.81199 0 5.57536 0H11.4295C15.1929 0 17.0049 1.81269 17.0049 5.29864V10.8761H11.5689V6.13526C11.5689 5.43807 11.4295 4.88032 11.1507 4.74089C10.872 4.60145 10.4538 4.46201 9.75689 4.46201H7.24798C6.55105 4.46201 5.99352 4.60145 5.85413 4.74089C5.71475 4.88032 5.43598 5.43807 5.43598 6.13526V14.5015C5.43598 15.1987 5.57537 15.7565 5.85413 15.8959C6.1329 16.1748 6.55105 16.1748 7.24798 16.1748H11.5689C15.1929 16.1748 17.1443 17.9875 17.1443 21.4734V32.3496C17.1443 35.8355 15.1929 37.6482 11.5689 37.6482H5.71475C1.95138 37.6482 0.139387 35.8355 0.139387 32.3496V26.7721H5.57536V31.5129C5.57536 32.2101 5.71475 32.7679 5.99352 32.9073C6.27229 33.1862 6.69044 33.1862 7.38736 33.1862H9.89628C10.5932 33.1862 11.1507 33.0468 11.2901 32.9073C11.5689 32.6284 11.5689 32.2101 11.5689 31.3735Z"
     transform="translate(70.2496 33.3517)"
     fill="#134D5E"
     id="path8"
     style="fill:#fffff4;fill-opacity:1" />
  <path
     d="M5.57536 33.3256H16.4473V37.6482H0V0H15.8898V4.32257H5.43598V15.8959H14.0778V20.2185H5.43598V33.3256H5.57536Z"
     transform="translate(92.6904 33.2123)"
     fill="#134D5E"
     id="path10"
     style="fill:#fffff4;fill-opacity:1" />
  <path
     d="M5.43598 22.4495V37.6482H0V0H12.2658C16.0292 0 17.8412 1.81269 17.8412 5.29864V17.0114C17.8412 20.079 16.4473 21.7523 13.799 22.1706L19.7925 37.5088H13.9384L8.36305 22.3101H5.43598V22.4495ZM5.43598 4.46201V18.1269H10.7326C11.4295 18.1269 11.987 17.9875 12.1264 17.848C12.4052 17.5692 12.5446 17.1509 12.5446 16.4537V6.2747C12.5446 5.57751 12.4052 5.01976 12.1264 4.88032C11.8476 4.74089 11.4295 4.60145 10.7326 4.60145H5.43598V4.46201Z"
     transform="translate(113.319 33.2123)"
     fill="#134D5E"
     id="path12"
     style="fill:#fffff4;fill-opacity:1" />
  <path
     d="M17.9806 0V4.32257H11.7083V37.5088H6.27228V4.32257H0V0H17.9806Z"
     transform="translate(134.366 33.3517)"
     fill="#134D5E"
     id="path14"
     style="fill:#fffff4;fill-opacity:1" />
  <path
     d="M16.3079 37.6482L14.7747 29.0031H6.82982L5.43598 37.6482H0L6.69044 0H14.4959L21.6045 37.6482H16.3079ZM7.52674 24.5411H14.0778L10.5932 4.74089L7.52674 24.5411Z"
     transform="translate(153.183 33.2123)"
     fill="#134D5E"
     id="path16"
     style="fill:#fffff4;fill-opacity:1" />
  <path
     d="M0 0H12.9627C16.7261 0 18.5381 1.81269 18.5381 5.29864V14.7804C18.5381 16.872 17.7018 18.1269 16.1686 18.5452C17.7018 18.9635 18.5381 20.079 18.5381 22.0312V32.3496C18.5381 35.8355 16.7261 37.6482 12.9627 37.6482H0V0ZM13.2415 14.5015V5.85639C13.2415 5.1592 13.1021 4.60145 12.8234 4.46201C12.5446 4.18313 12.1264 4.18313 11.4295 4.18313H5.43599V16.3142H11.4295C12.1264 16.3142 12.684 16.1748 12.8234 16.0353C13.1021 15.7565 13.2415 15.3382 13.2415 14.5015ZM13.2415 31.5129V22.3101C13.2415 21.6129 13.1021 21.0551 12.8234 20.9157C12.5446 20.6368 12.1264 20.6368 11.4295 20.6368H5.43599V33.3256H11.4295C12.1264 33.3256 12.684 33.1862 12.8234 33.0468C13.1021 32.7679 13.2415 32.2101 13.2415 31.5129Z"
     transform="translate(181.478 33.3517)"
     fill="white"
     id="path18" />
  <path
     d="M0 0H5.43599V37.6482H0V0Z"
     transform="translate(206.567 33.3517)"
     fill="white"
     id="path20" />
  <path
     d="M0 37.6482V0H5.43597V37.6482H0ZM19.235 0.139438L11.2901 18.9635L19.0956 37.6482H13.2415L5.57536 18.9635L13.3809 0.139438H19.235Z"
     transform="translate(218.694 33.2123)"
     fill="white"
     id="path22" />
  <path
     d="M5.43597 33.3256H16.3079V37.6482H0V0H15.8898V4.32257H5.43597V15.8959H14.0778V20.2185H5.43597V33.3256Z"
     transform="translate(241.692 33.2123)"
     fill="white"
     id="path24" />
  <path
     d="M2.23015 11.4339C3.76338 6.13526 8.64183 2.37044 14.496 2.37044C20.2107 2.37044 25.0891 6.13526 26.7617 11.4339H29.2707C27.5981 4.88032 21.7439 0 14.6353 0C7.52674 0 1.67261 4.88032 0 11.4339H2.23015Z"
     transform="translate(181.896 18.0136)"
     fill="white"
     id="path26" />
  <path
     d="M5.71474 0C5.9935 0.836627 6.27228 1.53382 6.55105 2.37044C4.73906 3.90426 3.3452 5.99583 2.5089 8.36627H0C0.975689 5.01976 2.92705 2.09157 5.71474 0Z"
     transform="translate(228.451 21.0813)"
     fill="white"
     id="path28" />
  <path
     d="M19.6531 11.4339H17.1442C15.611 6.13526 10.7326 2.37044 4.87844 2.37044C3.4846 2.37044 2.09075 2.64932 0.836292 3.06763C0.557524 2.37044 0.278768 1.67325 0 0.836627C1.53323 0.278876 3.06645 0 4.87844 0C11.987 0 17.9805 4.88032 19.6531 11.4339Z"
     transform="translate(238.207 18.0136)"
     fill="white"
     id="path30" />
  <path
     d="M7.1086 17.848H5.57536L0 0C0.696921 0.139438 1.25447 0.139437 1.53323 0.139437L7.1086 17.848Z"
     transform="translate(208.1 11.5995)"
     fill="white"
     id="path32" />
  <path
     d="M1.812 13.3163L13.3809 1.18522C13.6597 0.906346 13.6597 0.488032 13.3809 0.209157C13.1021 -0.0697189 12.684 -0.0697189 12.4052 0.209157L0 13.3163H1.812Z"
     transform="translate(222.318 16.1312)"
     fill="white"
     id="path34" />
  <path
     d="M1.39417 0H0V24.6747H1.39417V0Z"
     transform="translate(232.988 12.069) scale(0.999808 1.00018) rotate(51.0624)"
     fill="white"
     id="path36" />
  <path
     d="M4.59966 0C4.87843 0.278876 5.2966 0.557752 5.57536 0.836627L1.67261 5.1592H0L4.59966 0Z"
     transform="translate(198.483 24.4277)"
     fill="white"
     id="path38" />
  <path
     d="M3.90276 1.04578L0.975685 4.25285C0.696916 3.97398 0.418152 3.6951 0 3.41623L2.92707 0.209157C3.20584 -0.0697189 3.62398 -0.0697189 3.76337 0.209157C4.04213 0.348595 4.04214 0.766909 3.90276 1.04578Z"
     transform="translate(206.985 16.689)"
     fill="white"
     id="path40" />
  <path
     d="M0 1.96728V2.80391C0 2.80391 5.85413 4.47716 6.55105 4.05885C7.24797 3.64053 12.6839 1.6884 12.6839 1.6884C12.6839 1.6884 11.5689 0.294026 10.8719 0.294026C10.3144 0.294026 5.85412 0.572901 2.23013 0.0151495C1.11506 -0.124288 0 0.712339 0 1.96728Z"
     transform="translate(203.361 6.1463)"
     fill="white"
     id="path42" />
  <path
     d="M0.696921 1.97827L6.41166 1.42052C6.96919 1.42052 7.52674 1.6994 7.94489 2.11771C8.22366 2.67546 8.36305 3.23321 8.08428 3.79097L7.38736 5.18534C6.96921 6.02197 6.9692 6.99804 7.24797 7.83466C9.19935 13.4122 13.5203 25.8221 15.1929 29.4475H16.7261C15.8898 28.0531 12.8233 19.408 8.64181 7.27691C8.50243 6.71916 8.50243 6.16141 8.7812 5.7431L9.47812 4.34872C9.89628 3.37265 9.89626 2.11771 9.19934 1.28109C8.50242 0.30502 7.52673 -0.113293 6.41166 0.0261446L0.696921 0.583896C0.278768 0.583896 0 1.00221 0 1.42052C0 1.6994 0.278768 1.97827 0.696921 1.97827Z"
     transform="translate(223.851)"
     fill="white"
     id="path44" />
</svg>
